<svg id="Layer_1" data-name="Layer 1" xmlns="http://www.w3.org/2000/svg" viewBox="0 0 128 125.66"><defs><style>.cls-1{fill:#fff;}</style></defs><polygon class="cls-1" points="59.73 3.88 0 62.39 64.34 125.66 91.62 98.43 39.19 77.88 59.73 3.88"/><path class="cls-1" d="M65.3,0C71.43,18.39,77.62,37,84,56.1L59.39,49.38c-.39,7.24-.65,13.89-1.14,20.52a4.18,4.18,0,0,0,2.6,4.51c11,6,21.93,12.13,32.82,18.33,2,1.14,3.18,1.07,4.84-.62,9.34-9.49,18.81-18.86,28.23-28.27.57-.57,1.05-1.23,1.26-1.47Z" transform="translate(0 0)"/></svg>